<svg xmlns="http://www.w3.org/2000/svg" xmlns:xlink="http://www.w3.org/1999/xlink" width="500" zoomAndPan="magnify" viewBox="0 0 375 374.999991" height="500" preserveAspectRatio="xMidYMid meet" version="1.0"><defs><g/><clipPath id="63c1791d70"><path d="M 23.101562 277.996094 L 106.914062 277.996094 L 106.914062 361.804688 L 23.101562 361.804688 Z M 23.101562 277.996094 " clip-rule="nonzero"/></clipPath><clipPath id="c0b57206db"><path d="M 106.914062 277.996094 L 190.726562 277.996094 L 190.726562 361.804688 L 106.914062 361.804688 Z M 106.914062 277.996094 " clip-rule="nonzero"/></clipPath><clipPath id="8deb04f9ea"><path d="M 190.726562 277.996094 L 274.535156 277.996094 L 274.535156 361.804688 L 190.726562 361.804688 Z M 190.726562 277.996094 " clip-rule="nonzero"/></clipPath><clipPath id="7f0f7a4c72"><path d="M 274.535156 277.996094 L 358.347656 277.996094 L 358.347656 361.804688 L 274.535156 361.804688 Z M 274.535156 277.996094 " clip-rule="nonzero"/></clipPath></defs><g fill="#000000" fill-opacity="1"><g transform="translate(-0.324856, 253.782642)"><g><path d="M 181.875 0 L 25.984375 0 L 25.984375 -233.03125 L 181.875 -233.03125 C 245.644531 -233.03125 291.492188 -224.097656 319.421875 -206.234375 C 341.941406 -191.835938 354.769531 -172.242188 357.90625 -147.453125 C 359.3125 -136.734375 360.015625 -126.394531 360.015625 -116.4375 C 360.015625 -106.582031 359.335938 -96.269531 357.984375 -85.5 C 356.640625 -74.726562 353.039062 -64.28125 347.1875 -54.15625 C 341.34375 -44.03125 332.0625 -34.90625 319.34375 -26.78125 C 306.625 -18.664062 289.191406 -12.171875 267.046875 -7.296875 C 244.910156 -2.429688 216.519531 0 181.875 0 Z M 172.625 -57.65625 C 222.3125 -57.65625 250.40625 -70.210938 256.90625 -95.328125 C 258.632812 -102.359375 259.5 -109.394531 259.5 -116.4375 C 259.5 -123.582031 258.601562 -130.644531 256.8125 -137.625 C 255.03125 -144.601562 251.242188 -150.9375 245.453125 -156.625 C 239.660156 -162.3125 230.972656 -166.859375 219.390625 -170.265625 C 207.804688 -173.679688 192.21875 -175.390625 172.625 -175.390625 L 123.75 -175.390625 L 123.75 -57.65625 Z M 172.625 -57.65625 "/></g></g></g><g clip-path="url(#63c1791d70)"><path fill="#000000" d="M 23.101562 277.996094 L 106.914062 277.996094 L 106.914062 361.804688 L 23.101562 361.804688 Z M 23.101562 277.996094 " fill-opacity="1" fill-rule="nonzero"/></g><g clip-path="url(#c0b57206db)"><path fill="#fbe925" d="M 106.914062 277.996094 L 190.726562 277.996094 L 190.726562 361.804688 L 106.914062 361.804688 Z M 106.914062 277.996094 " fill-opacity="1" fill-rule="nonzero"/></g><g clip-path="url(#8deb04f9ea)"><path fill="#e5007e" d="M 190.726562 277.996094 L 274.535156 277.996094 L 274.535156 361.804688 L 190.726562 361.804688 Z M 190.726562 277.996094 " fill-opacity="1" fill-rule="nonzero"/></g><g clip-path="url(#7f0f7a4c72)"><path fill="#129ad8" d="M 274.535156 277.996094 L 358.347656 277.996094 L 358.347656 361.804688 L 274.535156 361.804688 Z M 274.535156 277.996094 " fill-opacity="1" fill-rule="nonzero"/></g></svg>